<?xml version="1.0" encoding="utf-8"?>
<!-- Generator: Adobe Illustrator 27.0.0, SVG Export Plug-In . SVG Version: 6.00 Build 0)  -->
<svg version="1.1" id="Layer_1" xmlns="http://www.w3.org/2000/svg" xmlns:xlink="http://www.w3.org/1999/xlink" x="0px" y="0px"
	 viewBox="0 0 595.28 387" style="enable-background:new 0 0 595.28 387;" xml:space="preserve">
<style type="text/css">
	.st0{fill:#EE1C51;}
	.st1{fill:#7F2554;}
</style>
<path class="st0" d="M425.81,105.33c-0.12,1.55-0.26,2.63-0.17,5.82c-0.02,2.91,0.37,8.44,0.36,10.08
	c-0.1,13.35-0.88,26.25,0.67,39.5c0.77,6.55,1.37,13.22,2.78,19.67c0.04,0.2,0.1,0.4,0.15,0.6c0.05-0.12,0.1-0.25,0.13-0.38
	c0.22-0.9,0.11-1.88,0.13-2.83c0.45-24.48,0.93-48.97,1.24-73.45c0.02-1.51-0.94-3.81-2.11-4.37c-1.34-0.65-3.78-0.33-5.12,0.54
	c-11.45,7.45-21.41,16.59-30.06,27.15c-0.64,0.78-1.3,1.53-2.66,3.14c-1.91-9.49-4.17-17.95-5.22-26.56
	c-1.51-12.39-2.18-24.89-3.11-37.35c-0.29-3.98-1.63-5.94-5.51-5.63c-3.12,0.25-6.85,0.85-9.08,2.74
	c-4.34,3.67-8.46,7.95-11.54,12.71c-9.4,14.56-16.76,30.13-21.06,47.03c-0.18,0.72-0.53,1.41-0.89,2.36
	c-4.5-5.3-8.67-10.31-12.94-15.23c-16.92-19.52-34.95-37.85-56.6-52.25c-5.22-3.47-8.52-2.51-10.42,3.58
	c-2.22,7.11-4.42,14.28-5.86,21.58c-4.4,22.32-3.18,44.78-0.77,67.21c0.19,1.73,0.33,3.46,0.54,5.67c-1.47-0.81-2.47-1.34-3.46-1.9
	c-18.72-10.76-38.57-18.72-59.51-23.97c-2.64-0.66-5.06-0.68-6.86,1.67c-1.95,2.55-1.16,5.13,0.11,7.7
	c6.62,13.39,13.2,26.79,19.8,40.18c2.68,5.43,5.36,10.86,8.21,16.64c-1.91,0.16-3.35,0.3-4.8,0.4c-12.01,0.9-23.76,3.1-35.16,7.05
	c-5.97,2.07-6.79,6.05-2.14,10.17c14.67,13.01,26.9,28.03,36.9,44.88c1.57,2.65,2.82,5.09,6.36,6.35c5.4,1.92,7.07,2.31,11.41-1.53
	c2.28-2.02,4.35-4.28,6.67-6.25c38.11-32.31,81.73-53.82,130.31-64.9c17.47-3.99,35.46-5.69,53.22-8.43
	c1.35-0.21,2.72-0.3,4.07-0.48c1.34-0.18,2.67-0.41,4-0.61c-0.1-0.33-0.21-0.66-0.31-1c-77.52,0.1-145.17,28.02-206.78,74.08
	c-8.71-16.48-19.87-31.3-33.61-44.65c1.57-0.47,2.46-0.78,3.36-1c11-2.62,22.16-4.2,33.44-3.52c5.85,0.36,7.93-4.47,5.71-8.97
	c-6.19-12.54-12.19-25.17-18.26-37.77c-2.52-5.24-5.03-10.48-7.55-15.71c0.22-0.26,0.44-0.53,0.65-0.79
	c8.58,3.36,17.44,6.17,25.68,10.22c11.02,5.41,21.59,11.74,32.29,17.79c3.96,2.24,7.66,0.81,8.51-3.68c0.25-1.3,0.05-2.72-0.1-4.06
	c-0.72-6.48-1.62-12.93-2.24-19.42c-2.22-23.35-2.29-46.62,3.43-69.58c0.42-1.7,0.96-3.36,1.53-5.36c1.47,0.98,2.61,1.7,3.72,2.47
	c12.5,8.66,23.92,18.6,34.21,29.75c10.83,11.73,21.22,23.87,31.75,35.89c1.41,1.61,2.82,2.85,5.1,2.31
	c2.42-0.57,3.33-2.35,3.59-4.62c0.02-0.21,0.08-0.41,0.12-0.62c3.9-21.27,12.79-40.42,24.93-58.14c1.76-2.57,4.14-4.73,6.23-7.08
	c0.29,0.19,0.57,0.39,0.86,0.58c0.08,0.7,0.22,1.39,0.24,2.09c0.66,21.98,7.34,44.06,13.56,65.15c0.78,2.64,6.29-0.5,8.47-3.37"/>
<g>
	<path class="st1" d="M41.75,305.67c0.97,0,1.97,0.21,3.02,0.62c1.04,0.41,2.05,0.95,3.02,1.62h-0.06c0.97,0.67,1.71,1.58,2.23,2.74
		c0.52,1.16,0.78,2.48,0.78,3.97v7.66c0,3.02-1.01,5.27-3.02,6.76c-0.97,0.71-1.97,1.26-2.99,1.65c-1.02,0.39-2.02,0.59-2.99,0.59
		H29.57c-0.97,0-1.97-0.2-2.99-0.59c-1.03-0.39-2.02-0.94-2.99-1.65c-2.01-1.49-3.02-3.74-3.02-6.76v-3.69c0-1.75,1.1-2.63,3.3-2.63
		c2.24,0,3.35,0.88,3.35,2.63v3.24c0,0.97,0.28,1.84,0.84,2.63c0.56,0.78,1.53,1.17,2.91,1.17h9.39c1.38,0,2.35-0.39,2.91-1.17
		c0.56-0.78,0.84-1.66,0.84-2.63v-6.76c0-0.93-0.28-1.8-0.84-2.6c-0.56-0.8-1.53-1.2-2.91-1.2H29.57c-1.94,0-3.93-0.71-5.98-2.12
		c-2.01-1.56-3.02-3.82-3.02-6.76v-6.65c0-1.49,0.26-2.8,0.78-3.94c0.52-1.14,1.27-2.06,2.24-2.77h-0.06
		c0.97-0.63,1.97-1.15,3.02-1.57c1.04-0.41,2.05-0.61,3.02-0.61h12.18c0.97,0,1.97,0.21,3.02,0.61c1.04,0.41,2.05,0.93,3.02,1.57
		h-0.06c0.97,0.71,1.71,1.63,2.23,2.77c0.52,1.14,0.78,2.45,0.78,3.94v3.3c0,1.75-1.12,2.63-3.35,2.63c-2.2,0-3.3-0.88-3.3-2.63
		v-2.79c0-0.93-0.28-1.79-0.84-2.57c-0.56-0.78-1.53-1.17-2.91-1.17h-9.39c-1.38,0-2.35,0.39-2.91,1.17
		c-0.56,0.78-0.84,1.64-0.84,2.57v5.7c0,0.97,0.28,1.84,0.84,2.6c0.56,0.76,1.53,1.15,2.91,1.15H41.75z"/>
	<path class="st1" d="M63.1,331.26c-1.38,0-2.31-0.35-2.79-1.06c-0.48-0.71-0.73-1.49-0.73-2.35v-37.66c0-0.86,0.24-1.63,0.73-2.32
		c0.48-0.69,1.42-1.03,2.79-1.03h19.45c1.38,0,2.1,0.93,2.18,2.79c0.07,1.9-0.65,2.85-2.18,2.85H66.17v33.14h17.38
		c1.38,0,2.09,0.91,2.12,2.74c0.07,1.94-0.63,2.91-2.12,2.91H63.1z M80.48,308.13c0,1.3-0.46,2.4-1.37,3.3
		c-0.91,0.89-2.02,1.34-3.32,1.34c-1.27,0-2.35-0.45-3.24-1.34c-0.89-0.89-1.34-1.99-1.34-3.3c0-1.3,0.45-2.4,1.34-3.3
		c0.89-0.89,1.97-1.34,3.24-1.34c1.3,0,2.41,0.45,3.32,1.34C80.02,305.73,80.48,306.83,80.48,308.13z"/>
	<path class="st1" d="M121.83,322.27c0,3.02-1.01,5.27-3.02,6.76c-0.97,0.71-1.97,1.26-2.99,1.65c-1.03,0.39-2.02,0.59-2.99,0.59
		h-12.18c-0.97,0-1.97-0.2-2.99-0.59c-1.02-0.39-2.02-0.94-2.99-1.65c-0.97-0.74-1.71-1.67-2.24-2.77c-0.52-1.1-0.78-2.43-0.78-4
		v-26.54c0-1.49,0.26-2.8,0.78-3.94c0.52-1.14,1.27-2.06,2.24-2.77h-0.06c0.97-0.63,1.97-1.15,3.02-1.57
		c1.04-0.41,2.05-0.61,3.02-0.61h12.18c0.97,0,1.97,0.21,3.02,0.61c1.04,0.41,2.05,0.93,3.02,1.57h-0.06
		c0.97,0.71,1.71,1.63,2.24,2.77c0.52,1.14,0.78,2.45,0.78,3.94v3.86c0,1.79-1.12,2.68-3.35,2.68c-2.2,0-3.3-0.89-3.3-2.68v-3.35
		c0-0.93-0.28-1.79-0.84-2.57c-0.56-0.78-1.53-1.17-2.91-1.17h-9.39c-1.38,0-2.35,0.39-2.91,1.17s-0.84,1.64-0.84,2.57v25.59
		c0,0.97,0.28,1.84,0.84,2.63s1.53,1.17,2.91,1.17h9.39c1.38,0,2.35-0.39,2.91-1.17c0.56-0.78,0.84-1.66,0.84-2.63v-3.24
		c0-1.75,1.1-2.63,3.3-2.63c2.23,0,3.35,0.88,3.35,2.63V322.27z"/>
	<path class="st1" d="M151.05,286.84c0.97,0,1.97,0.21,3.02,0.61c1.04,0.41,2.05,0.93,3.02,1.57h-0.06
		c0.97,0.71,1.71,1.63,2.24,2.77c0.52,1.14,0.78,2.45,0.78,3.94v26.54c0,3.02-1.01,5.27-3.02,6.76c-0.97,0.71-1.97,1.26-2.99,1.65
		c-1.03,0.39-2.02,0.59-2.99,0.59h-12.18c-0.97,0-1.97-0.2-2.99-0.59c-1.02-0.39-2.02-0.94-2.99-1.65
		c-0.97-0.74-1.71-1.67-2.24-2.77c-0.52-1.1-0.78-2.43-0.78-4v-26.54c0-1.49,0.26-2.8,0.78-3.94c0.52-1.14,1.27-2.06,2.24-2.77
		h-0.06c0.97-0.63,1.97-1.15,3.02-1.57c1.04-0.41,2.05-0.61,3.02-0.61H151.05z M149.66,325.62c1.38,0,2.35-0.39,2.91-1.17
		c0.56-0.78,0.84-1.66,0.84-2.63v-25.59c0-0.93-0.28-1.79-0.84-2.57c-0.56-0.78-1.53-1.17-2.91-1.17h-9.39
		c-1.38,0-2.35,0.39-2.91,1.17s-0.84,1.64-0.84,2.57v25.59c0,0.97,0.28,1.84,0.84,2.63s1.53,1.17,2.91,1.17H149.66z"/>
	<path class="st1" d="M193.24,289.24c0-1.79,1.1-2.68,3.3-2.68c2.2,0,3.3,0.89,3.3,2.68v38.56c0,1.3-0.69,2.25-2.07,2.85h0.06
		c-0.6,0.26-1.23,0.47-1.9,0.61s-1.32,0.22-1.96,0.22c-0.48,0-0.99-0.05-1.51-0.14c-0.52-0.09-1.02-0.24-1.48-0.45
		c-0.47-0.2-0.89-0.48-1.29-0.84c-0.39-0.35-0.7-0.79-0.92-1.31l-12.13-30.23l-1.51,0.17v30.17c0,1.79-1.12,2.68-3.35,2.68
		c-2.2,0-3.3-0.89-3.3-2.68v-38.5c0-1.53,0.67-2.55,2.01-3.07c1.23-0.48,2.53-0.73,3.91-0.73c0.97,0,1.95,0.2,2.93,0.59
		c0.99,0.39,1.74,1.13,2.26,2.21l12.07,30.29l1.56-0.17V289.24z"/>
	<path class="st1" d="M227.89,325.62c1.38,0,2.35-0.39,2.91-1.17c0.56-0.78,0.84-1.66,0.84-2.63v-25.59c0-0.93-0.28-1.79-0.84-2.57
		c-0.56-0.78-1.53-1.17-2.91-1.17h-13.08l-0.06,36.43c0,0.82-0.32,1.47-0.95,1.96c-0.63,0.48-1.42,0.73-2.35,0.73
		c-2.2,0-3.3-0.89-3.3-2.68v-38.72c0-1.34,0.34-2.24,1.03-2.68c0.69-0.45,1.52-0.67,2.49-0.67h17.6c0.97,0,1.97,0.21,3.02,0.61
		c1.04,0.41,2.05,0.93,3.02,1.57h-0.06c0.97,0.71,1.71,1.63,2.24,2.77c0.52,1.14,0.78,2.45,0.78,3.94v26.54
		c0,3.02-1.01,5.27-3.02,6.76c-0.97,0.71-1.97,1.26-2.99,1.65c-1.03,0.39-2.02,0.59-2.99,0.59h-9.39c-0.63,0-1.13-0.26-1.48-0.78
		c-0.35-0.52-0.53-1.21-0.53-2.07c0-1.86,0.8-2.79,2.4-2.79H227.89z"/>
	<path class="st1" d="M286.67,314.72c0-0.86-0.32-1.69-0.95-2.49c-0.63-0.8-1.75-1.26-3.35-1.37c-1.04,1.27-2.31,1.9-3.8,1.9
		c-1.27,0-2.35-0.45-3.24-1.34c-0.89-0.89-1.34-1.99-1.34-3.3c0-1.3,0.45-2.4,1.34-3.3c0.89-0.89,1.97-1.34,3.24-1.34
		c0.67,0,1.33,0.19,1.98,0.56c0.65,0.37,1.24,0.82,1.76,1.34c0.82-0.04,1.45-0.17,1.9-0.39c0.45-0.22,0.77-0.49,0.98-0.81
		c0.2-0.32,0.33-0.68,0.36-1.09c0.04-0.41,0.06-0.82,0.06-1.23v-5.64c0-0.93-0.29-1.79-0.87-2.57c-0.58-0.78-1.56-1.17-2.93-1.17
		h-11.68l-0.06,36.88c0,0.75-0.34,1.31-1.03,1.7c-0.69,0.39-1.44,0.59-2.26,0.59c-2.2,0-3.3-0.89-3.3-2.68v-38.78
		c0-1.34,0.34-2.24,1.03-2.68c0.69-0.45,1.52-0.67,2.49-0.67h16.21c0.97,0,2,0.19,3.1,0.56c1.1,0.37,2.13,0.88,3.1,1.51h-0.06
		c0.97,0.71,1.69,1.64,2.15,2.79c0.47,1.16,0.7,2.5,0.7,4.02v6.31c0,1.49-0.32,2.71-0.95,3.66c-0.63,0.95-1.3,1.7-2.01,2.26
		c0.48,0.3,0.95,0.61,1.4,0.92c0.45,0.32,0.82,0.66,1.12,1.03c0.48,0.52,0.87,1.14,1.15,1.84c0.28,0.71,0.42,1.55,0.42,2.51v7.99
		c0,3.05-1.19,5.31-3.58,6.76c-1.19,0.75-2.32,1.3-3.38,1.68c-1.06,0.37-2.11,0.56-3.16,0.56h-8.27c-0.63,0-1.13-0.26-1.48-0.78
		c-0.35-0.52-0.53-1.21-0.53-2.07c0-1.86,0.78-2.79,2.35-2.79h7.66c1.38,0,2.35-0.39,2.91-1.17c0.56-0.78,0.84-1.66,0.84-2.63
		V314.72z"/>
	<path class="st1" d="M305.28,331.26c-1.38,0-2.31-0.35-2.79-1.06c-0.48-0.71-0.73-1.49-0.73-2.35v-37.66
		c0-0.86,0.24-1.63,0.73-2.32c0.48-0.69,1.42-1.03,2.79-1.03h19.45c1.38,0,2.1,0.93,2.18,2.79c0.07,1.9-0.65,2.85-2.18,2.85h-16.37
		v33.14h17.38c1.38,0,2.09,0.91,2.12,2.74c0.07,1.94-0.63,2.91-2.12,2.91H305.28z M322.65,308.13c0,1.3-0.46,2.4-1.37,3.3
		c-0.91,0.89-2.02,1.34-3.32,1.34c-1.27,0-2.35-0.45-3.24-1.34c-0.89-0.89-1.34-1.99-1.34-3.3c0-1.3,0.45-2.4,1.34-3.3
		c0.89-0.89,1.97-1.34,3.24-1.34c1.3,0,2.41,0.45,3.32,1.34C322.2,305.73,322.65,306.83,322.65,308.13z"/>
	<path class="st1" d="M355.06,305.67c0.97,0,1.97,0.21,3.02,0.62s2.05,0.95,3.02,1.62h-0.06c0.97,0.67,1.71,1.58,2.24,2.74
		c0.52,1.16,0.78,2.48,0.78,3.97v7.66c0,3.02-1.01,5.27-3.02,6.76c-0.97,0.71-1.97,1.26-2.99,1.65c-1.03,0.39-2.02,0.59-2.99,0.59
		h-12.18c-0.97,0-1.96-0.2-2.99-0.59c-1.03-0.39-2.02-0.94-2.99-1.65c-2.01-1.49-3.02-3.74-3.02-6.76v-3.69
		c0-1.75,1.1-2.63,3.3-2.63c2.23,0,3.35,0.88,3.35,2.63v3.24c0,0.97,0.28,1.84,0.84,2.63s1.53,1.17,2.91,1.17h9.39
		c1.38,0,2.35-0.39,2.91-1.17s0.84-1.66,0.84-2.63v-6.76c0-0.93-0.28-1.8-0.84-2.6s-1.53-1.2-2.91-1.2h-10.79
		c-1.94,0-3.93-0.71-5.98-2.12c-2.01-1.56-3.02-3.82-3.02-6.76v-6.65c0-1.49,0.26-2.8,0.78-3.94c0.52-1.14,1.27-2.06,2.24-2.77
		h-0.06c0.97-0.63,1.97-1.15,3.02-1.57c1.04-0.41,2.05-0.61,3.02-0.61h12.18c0.97,0,1.97,0.21,3.02,0.61
		c1.04,0.41,2.05,0.93,3.02,1.57h-0.06c0.97,0.71,1.71,1.63,2.24,2.77c0.52,1.14,0.78,2.45,0.78,3.94v3.3
		c0,1.75-1.12,2.63-3.35,2.63c-2.2,0-3.3-0.88-3.3-2.63v-2.79c0-0.93-0.28-1.79-0.84-2.57s-1.53-1.17-2.91-1.17h-9.39
		c-1.38,0-2.35,0.39-2.91,1.17s-0.84,1.64-0.84,2.57v5.7c0,0.97,0.28,1.84,0.84,2.6c0.56,0.76,1.53,1.15,2.91,1.15H355.06z"/>
	<path class="st1" d="M387.75,328.97c0,1.79-1.12,2.68-3.35,2.68c-2.2,0-3.3-0.89-3.3-2.68v-36.49h-9.78
		c-1.34,0-2.05-0.95-2.12-2.85c0-1.86,0.71-2.79,2.12-2.79h26.21c1.42,0,2.09,0.93,2.01,2.79c0,1.9-0.67,2.85-2.01,2.85h-9.78
		V328.97z"/>
	<path class="st1" d="M427.93,328.86c0,1.79-1.12,2.68-3.35,2.68c-2.2,0-3.3-0.89-3.3-2.68v-39.62c0-1.79,1.1-2.68,3.3-2.68
		c2.23,0,3.35,0.89,3.35,2.68V328.86z M441,308.13c0,1.3-0.45,2.4-1.34,3.3c-0.89,0.89-1.99,1.34-3.3,1.34
		c-1.27,0-2.35-0.45-3.24-1.34c-0.89-0.89-1.34-1.99-1.34-3.3c0-1.3,0.45-2.4,1.34-3.3c0.89-0.89,1.97-1.34,3.24-1.34
		c1.3,0,2.4,0.45,3.3,1.34C440.56,305.73,441,306.83,441,308.13z M444.92,289.24c0-1.79,1.1-2.68,3.3-2.68
		c2.24,0,3.35,0.89,3.35,2.68v39.62c0,1.79-1.12,2.68-3.35,2.68c-2.2,0-3.3-0.89-3.3-2.68V289.24z"/>
	<path class="st1" d="M480.85,286.84c0.97,0,1.97,0.21,3.02,0.61c1.04,0.41,2.05,0.93,3.02,1.57h-0.06
		c0.97,0.71,1.71,1.63,2.23,2.77c0.52,1.14,0.78,2.45,0.78,3.94v26.54c0,3.02-1.01,5.27-3.02,6.76c-0.97,0.71-1.97,1.26-2.99,1.65
		c-1.02,0.39-2.02,0.59-2.99,0.59h-12.18c-0.97,0-1.97-0.2-2.99-0.59c-1.03-0.39-2.02-0.94-2.99-1.65
		c-0.97-0.74-1.71-1.67-2.23-2.77c-0.52-1.1-0.78-2.43-0.78-4v-26.54c0-1.49,0.26-2.8,0.78-3.94c0.52-1.14,1.27-2.06,2.23-2.77
		h-0.06c0.97-0.63,1.97-1.15,3.02-1.57c1.04-0.41,2.05-0.61,3.02-0.61H480.85z M479.45,325.62c1.38,0,2.35-0.39,2.91-1.17
		s0.84-1.66,0.84-2.63v-25.59c0-0.93-0.28-1.79-0.84-2.57s-1.53-1.17-2.91-1.17h-9.39c-1.38,0-2.35,0.39-2.91,1.17
		s-0.84,1.64-0.84,2.57v25.59c0,0.97,0.28,1.84,0.84,2.63s1.53,1.17,2.91,1.17H479.45z"/>
	<path class="st1" d="M532.53,286.56c1.19,0,2.5,0.28,3.91,0.84c1.3,0.52,1.96,1.51,1.96,2.96v38.5c0,1.79-1.1,2.68-3.3,2.68
		c-2.2,0-3.3-0.89-3.3-2.68v-28.72l-1.62-0.17l-2.24,7.26l-6.71,22.35c-0.41,1.3-1.42,1.94-3.02,1.9c-0.71-0.04-1.32-0.22-1.84-0.56
		c-0.52-0.33-0.88-0.82-1.06-1.45l-4.02-13.02c-0.82-2.57-1.64-5.19-2.46-7.85c-0.82-2.66-1.71-5.62-2.68-8.86l-1.62,0.22v28.89
		c0,1.79-1.1,2.68-3.3,2.68s-3.3-0.89-3.3-2.68v-38.5c0-1.42,0.65-2.4,1.96-2.96c1.38-0.56,2.7-0.82,3.97-0.78
		c0.56,0,1.14,0.08,1.73,0.22c0.59,0.15,1.15,0.36,1.68,0.64c0.52,0.28,0.99,0.63,1.4,1.06c0.41,0.43,0.73,0.92,0.95,1.48l8.77,29.9
		c0.63-2.2,1.3-4.58,2.01-7.15c0.71-2.57,1.43-5.18,2.18-7.82c0.74-2.64,1.48-5.26,2.21-7.85c0.73-2.59,1.41-5,2.04-7.24
		c0.22-0.52,0.54-0.99,0.95-1.4c0.41-0.41,0.88-0.75,1.4-1.03c0.52-0.28,1.07-0.49,1.65-0.64
		C531.41,286.63,531.98,286.56,532.53,286.56z"/>
	<path class="st1" d="M549.86,331.26c-1.38,0-2.31-0.35-2.79-1.06c-0.48-0.71-0.73-1.49-0.73-2.35v-37.66
		c0-0.86,0.24-1.63,0.73-2.32c0.48-0.69,1.42-1.03,2.79-1.03h19.45c1.38,0,2.1,0.93,2.18,2.79c0.07,1.9-0.65,2.85-2.18,2.85h-16.37
		v33.14h17.38c1.38,0,2.09,0.91,2.12,2.74c0.07,1.94-0.63,2.91-2.12,2.91H549.86z M567.23,308.13c0,1.3-0.46,2.4-1.37,3.3
		c-0.91,0.89-2.02,1.34-3.32,1.34c-1.27,0-2.35-0.45-3.24-1.34c-0.89-0.89-1.34-1.99-1.34-3.3c0-1.3,0.45-2.4,1.34-3.3
		c0.89-0.89,1.97-1.34,3.24-1.34c1.3,0,2.41,0.45,3.32,1.34C566.78,305.73,567.23,306.83,567.23,308.13z"/>
</g>
</svg>
